<svg width="31" height="23" viewBox="0 0 31 23" fill="none" xmlns="http://www.w3.org/2000/svg">
<path d="M14.3503 21.3407C14.1314 21.3407 13.9215 21.2535 13.7667 21.0982C13.6119 20.943 13.5249 20.7324 13.5249 20.5128H11.874C11.874 21.1715 12.1349 21.8032 12.5993 22.269C13.0637 22.7347 13.6936 22.9964 14.3503 22.9964C15.0071 22.9964 15.637 22.7347 16.1014 22.269C16.5658 21.8032 16.8267 21.1715 16.8267 20.5128H15.1758C15.1758 20.7324 15.0888 20.943 14.934 21.0982C14.7792 21.2535 14.5693 21.3407 14.3503 21.3407Z" fill="#111111"/>
<path d="M8.54167 21.3407C8.32275 21.3407 8.1128 21.2535 7.958 21.0982C7.8032 20.943 7.71623 20.7324 7.71623 20.5128H6.05762C6.05762 20.8395 6.12176 21.1629 6.24639 21.4646C6.37102 21.7664 6.55369 22.0406 6.78397 22.2715C7.01425 22.5025 7.28764 22.6857 7.58852 22.8107C7.8894 22.9357 8.21188 23 8.53754 23C8.86321 23 9.18569 22.9357 9.48657 22.8107C9.78745 22.6857 10.0608 22.5025 10.2911 22.2715C10.5214 22.0406 10.7041 21.7664 10.8287 21.4646C10.9533 21.1629 11.0175 20.8395 11.0175 20.5128H9.36659C9.36659 20.7323 9.2797 20.9428 9.12501 21.098C8.97032 21.2533 8.7605 21.3406 8.54167 21.3407Z" fill="#111111"/>
<path d="M19.3104 7.64401C19.2654 7.63633 19.2198 7.63252 19.1742 7.63263H5.96717C5.74825 7.63263 5.53829 7.71985 5.38349 7.8751C5.22869 8.03035 5.14173 8.24092 5.14173 8.46047C5.14173 8.68003 5.22869 8.8906 5.38349 9.04585C5.53829 9.2011 5.74825 9.28832 5.96717 9.28832H18.1996L17.9814 10.6015L16.8243 17.5668H6.05642L3.24993 10.6015L1.57583 6.48296C1.4873 6.28921 1.32768 6.13717 1.13019 6.05849C0.932694 5.9798 0.712552 5.98054 0.515587 6.06054C0.318622 6.14054 0.160009 6.29365 0.0727679 6.48798C-0.0144736 6.68232 -0.0236223 6.90291 0.0472263 7.10384L2.7201 13.6816L4.54432 18.5307C4.67897 18.9389 4.95704 19.2224 5.35841 19.2224H17.5233C17.7188 19.2225 17.9079 19.1531 18.0571 19.0264C18.2063 18.8997 18.3058 18.724 18.3379 18.5307L19.6555 10.6015L19.9888 8.59655C20.0247 8.38002 19.9735 8.15803 19.8462 7.9794C19.719 7.80077 19.5263 7.68013 19.3104 7.64401Z" fill="#111111"/>
<circle cx="21.9805" cy="9" r="9" fill="#DD7733"/>
<path d="M19.3338 12L22.6438 8.47C22.7971 8.30333 22.9271 8.14 23.0338 7.98C23.1471 7.81333 23.2305 7.64667 23.2838 7.48C23.3438 7.30667 23.3738 7.12667 23.3738 6.94C23.3738 6.78667 23.3438 6.63667 23.2838 6.49C23.2238 6.34333 23.1338 6.21 23.0138 6.09C22.9005 5.97 22.7605 5.87333 22.5938 5.8C22.4271 5.72667 22.2371 5.69 22.0238 5.69C21.7238 5.69 21.4638 5.76 21.2438 5.9C21.0305 6.03333 20.8671 6.23 20.7538 6.49C20.6405 6.74333 20.5838 7.04667 20.5838 7.4H19.7338C19.7338 6.9 19.8238 6.46333 20.0038 6.09C20.1838 5.71 20.4438 5.41667 20.7838 5.21C21.1305 4.99667 21.5438 4.89 22.0238 4.89C22.4105 4.89 22.7438 4.95667 23.0238 5.09C23.3038 5.21667 23.5338 5.38333 23.7138 5.59C23.8938 5.79 24.0271 6.00667 24.1138 6.24C24.2005 6.47333 24.2438 6.69667 24.2438 6.91C24.2438 7.27 24.1571 7.62667 23.9838 7.98C23.8105 8.33333 23.5871 8.65 23.3138 8.93L21.0838 11.2H24.2738V12H19.3338Z" fill="white"/>
</svg>
